<svg xmlns="http://www.w3.org/2000/svg" width="180" height="180" viewBox="0 0 180 180">
    <g fill="none" fill-rule="nonzero">
        <path fill="#36C5F0" d="M65.706 0c-9.897 0-17.919 8.04-17.919 17.955A17.937 17.937 0 0 0 65.706 35.91h17.922V17.955C83.636 8.048 75.613.01 65.706 0m0 47.88H17.919C8.022 47.88 0 55.92 0 65.838c0 9.915 8.022 17.955 17.919 17.955h47.79c9.894 0 17.919-8.04 17.919-17.955 0-9.918-8.025-17.958-17.922-17.958"/>
        <path fill="#2EB67D" d="M179.202 65.838c0-9.918-8.025-17.958-17.922-17.958s-17.919 8.04-17.919 17.958v17.955h17.919c9.907-.01 17.93-8.048 17.922-17.955m-47.787 0V17.955C131.423 8.048 123.4.01 113.493 0c-9.897 0-17.919 8.04-17.919 17.955v47.88c0 9.921 8.022 17.961 17.919 17.961 9.907-.01 17.93-8.048 17.922-17.955"/>
        <path fill="#ECB22E" d="M113.493 179.556c9.907-.01 17.93-8.048 17.922-17.955.008-9.907-8.015-17.945-17.922-17.955H95.574v17.955c0 9.915 8.022 17.955 17.919 17.955m0-47.88h47.79c9.894 0 17.919-8.04 17.919-17.958.008-9.907-8.015-17.945-17.922-17.955h-47.787c-9.897 0-17.919 8.04-17.919 17.955a17.937 17.937 0 0 0 17.919 17.955"/>
        <path fill="#E01E5A" d="M0 113.718a17.937 17.937 0 0 0 17.919 17.955c9.907-.01 17.93-8.048 17.922-17.955V95.763H17.919C8.022 95.763 0 103.803 0 113.718m47.787 0v47.88c0 9.918 8.022 17.958 17.919 17.958 9.907-.01 17.93-8.048 17.922-17.955v-47.883a17.937 17.937 0 0 0-17.922-17.955c-9.897 0-17.919 8.04-17.919 17.955"/>
    </g>
</svg>
